<svg xmlns="http://www.w3.org/2000/svg" xmlns:xlink="http://www.w3.org/1999/xlink" width="37" height="37" viewBox="0 0 37 37">
  <defs>
    <clipPath id="clip-MaterialPhone">
      <rect width="37" height="37"/>
    </clipPath>
  </defs>
  <g id="MaterialPhone" clip-path="url(#clip-MaterialPhone)">
    <g id="baseline-phone-24px" transform="translate(0 0.001)">
      <path id="Path_3" data-name="Path 3" d="M0,0H36.838V36.838H0Z" fill="none"/>
      <path id="Path_4" data-name="Path 4" d="M8.556,14.957A23.252,23.252,0,0,0,18.672,25.072L22.049,21.7a1.526,1.526,0,0,1,1.566-.368,17.509,17.509,0,0,0,5.48.875,1.539,1.539,0,0,1,1.535,1.535v5.357a1.539,1.539,0,0,1-1.535,1.535A26.092,26.092,0,0,1,3,4.535,1.539,1.539,0,0,1,4.535,3H9.907a1.539,1.539,0,0,1,1.535,1.535,17.437,17.437,0,0,0,.875,5.48,1.54,1.54,0,0,1-.384,1.566Z" transform="translate(1.605 1.605)" fill="#f2f2f2"/>
    </g>
  </g>
</svg>
